<svg xmlns="http://www.w3.org/2000/svg" width="116" height="156" viewBox="0 0 116 156"><rect width="116" height="156" fill="#ffffff"/><rect x="12" y="12" width="60" height="10" fill="#0b0d0a"/><rect x="12" y="26" width="36" height="3" fill="#3d5806"/><rect x="12" y="34" width="92" height="1" fill="#0b0d0a"/><rect x="12" y="42" width="73.60000000000001" height="4" fill="#d5d8cd"/><rect x="12" y="50" width="92" height="4" fill="#d5d8cd"/><rect x="12" y="58" width="92" height="4" fill="#d5d8cd"/><rect x="12" y="70" width="24" height="3" fill="#3d5806"/><rect x="12" y="78" width="73.60000000000001" height="4" fill="#d5d8cd"/><rect x="12" y="86" width="92" height="4" fill="#d5d8cd"/><rect x="12" y="94" width="92" height="4" fill="#d5d8cd"/><rect x="12" y="102" width="73.60000000000001" height="4" fill="#d5d8cd"/><rect x="12" y="110" width="92" height="4" fill="#d5d8cd"/><rect x="12" y="122" width="24" height="3" fill="#3d5806"/><rect x="12" y="130" width="73.60000000000001" height="4" fill="#d5d8cd"/><rect x="12" y="138" width="92" height="4" fill="#d5d8cd"/></svg>
